<?xml version="1.0" encoding="UTF-8" standalone="no"?>
<svg
   xmlns:dc="http://purl.org/dc/elements/1.1/"
   xmlns:cc="http://creativecommons.org/ns#"
   xmlns:rdf="http://www.w3.org/1999/02/22-rdf-syntax-ns#"
   xmlns:svg="http://www.w3.org/2000/svg"
   xmlns="http://www.w3.org/2000/svg"
   viewBox="0 0 269.70667 269.72"
   height="269.72"
   width="269.70667"
   xml:space="preserve"
   id="svg2"
   version="1.1"><metadata
     id="metadata8"><rdf:RDF><cc:Work
         rdf:about=""><dc:format>image/svg+xml</dc:format><dc:type
           rdf:resource="http://purl.org/dc/dcmitype/StillImage" /></cc:Work></rdf:RDF></metadata><defs
     id="defs6" /><g
     transform="matrix(1.3333333,0,0,-1.3333333,0,269.72)"
     id="g10"><g
       transform="scale(0.1)"
       id="g12"><path
         id="path14"
         style="fill:#132746;fill-opacity:1;fill-rule:nonzero;stroke:none"
         d="m 968.512,2021.13 c -18.188,1.13 -36.258,1.7 -54.211,1.72 C 663.93,2023.14 437.137,1916.5 239.523,1705.28 59.8555,1513.25 -0.53125,1358.71 0.00390625,1172.1 0.28125,1072.27 18.0039,963.27 44.2305,834.441 93.5508,592.18 237.367,358.301 438.785,192.699 593.02,65.9609 765.023,1.21875 946.281,0.0195313 1040.23,-0.609375 1136.62,15.8398 1234.36,49.5703 c 315.53,108.8987 617.34,420.7187 734,758.2497 36.92,106.821 54.85,210.76 54.45,309.71 -0.92,241.76 -111.38,453.67 -322.4,605.18 -255.99,183.87 -502.22,284.24 -731.898,298.42" /><path
         id="path16"
         style="fill:#ffffff;fill-opacity:1;fill-rule:nonzero;stroke:none"
         d="m 608.258,1008.17 h -69.383 l -0.074,-1.96 c -0.559,-13.472 -8.571,-131.499 -114.168,-131.499 -94.383,0 -142.281,84.578 -142.375,251.419 0.094,166.83 47.992,251.42 142.375,251.42 107.433,0 113.937,-126.12 114.168,-131.48 l 0.074,-1.95 h 69.383 c 6.414,0 12.637,2.63 17.101,7.2 4.274,4.4 6.481,10.08 6.176,16 -1.441,32.73 -18.23,196.02 -207.879,196.02 -153.269,0 -234.273,-116.48 -234.273,-336.86 0,-220.82 81.004,-337.55 234.273,-337.55 182.539,0 205.235,149.129 207.856,194.851 0.441,6.289 -1.719,12.36 -6.133,17.019 -4.434,4.69 -10.707,7.37 -17.121,7.37" /><path
         id="path18"
         style="fill:#ffffff;fill-opacity:1;fill-rule:nonzero;stroke:none"
         d="m 1686.35,1166.23 0.02,-0.02 -59.77,26.06 c -57.47,25.25 -77.85,49.8 -77.85,93.89 0,57.47 42.05,96.1 104.63,96.1 36.98,0 67.34,-7.58 104.4,-45.31 l 2.02,-2.07 31.89,29.16 c 18.47,17.15 13.13,32.59 5.41,42.51 -31.1,36.7 -81.04,56.85 -140.67,56.85 -115.01,0 -198.48,-75.01 -198.48,-178.38 0,-101.65 64.04,-144.14 133.24,-174.9 l 60.98,-27.23 c 61.29,-27.47 90.46,-50.91 90.46,-109.851 0,-80.418 -72.67,-101.848 -115.59,-101.848 -36.93,0 -78.05,7.891 -128.57,65.129 l -1.98,2.25 -33.22,-29.172 c -17.1,-15.027 -17.23,-27.929 -0.58,-49.347 45.74,-58.781 112.78,-71.121 160.98,-71.121 104.23,0 209.77,64.019 209.77,186.371 0,105.909 -58.8,152.919 -147.09,190.929" /><path
         id="path20"
         style="fill:#ffffff;fill-opacity:1;fill-rule:nonzero;stroke:none"
         d="m 1097.11,1270.38 c 0,104.12 -84.35,192.33 -188.512,192.33 -48.981,0 -93.582,-18.68 -127.118,-49.31 v 35.78 h -62.718 c -18.883,0 -26.098,-12.33 -26.098,-26.5 V 815.129 c 0,-17.098 10.43,-26.231 25.809,-26.231 h 62.73 c 0,0 0,477.772 0,477.802 0,62.76 50.918,113.65 113.676,113.65 62.754,0 113.661,-50.89 113.661,-113.65 0,-0.03 0,-477.891 0,-477.891 h 62.32 c 17.29,0 26.25,9.589 26.25,26.14 0,0 0,454.841 0,455.431" /><path
         id="path22"
         style="fill:#ffffff;fill-opacity:1;fill-rule:nonzero;stroke:none"
         d="m 1456.79,1417.29 c 3.28,4.06 5.29,9.17 5.29,14.77 0,10.46 -6.79,19.24 -16.18,22.42 -18.14,6.08 -37.47,9.41 -57.57,9.41 -48.99,0 -93.59,-18.68 -127.11,-49.3 v 35.78 h -62.72 c -18.91,0 -26.13,-12.33 -26.13,-26.51 V 816.309 c 0,-17.098 10.47,-26.227 25.85,-26.227 h 62.72 c 0,0 0,477.778 0,477.798 0,62.76 50.9,113.66 113.69,113.66 16.45,0 32.03,-3.57 46.13,-9.84 l 36.24,45.46 -0.21,0.13" /></g></g></svg>