<?xml version="1.0" encoding="UTF-8"?> <svg xmlns="http://www.w3.org/2000/svg" xmlns:xlink="http://www.w3.org/1999/xlink" id="b1fb1e3c-7afb-4d8f-9136-167871344e1e" data-name="Calque 1" viewBox="0 0 235 80"><defs><style>.afb7d7ce-54bb-4ea7-abc1-e4792dcc29ed{fill:url(#f1957df8-47ad-44d9-ad63-5f6a8912fdc2);}.a3363fa6-5686-4420-89c9-90ad3a9b6fef,.a7ad77aa-7cf3-48ac-86c8-736d906ec386{fill:#1d1d1b;}.b87523b6-cd10-4b84-9502-051bedd03908{fill:url(#a6ec744e-293c-4048-abb1-7d41429fe99f);}.a6c84d29-b468-4e19-95d7-e80d4e599c08{fill:url(#b6bcb5fb-c9a2-4a1a-a351-b5d5d7ed9041);}.ab4c250a-ee78-444d-b2cd-acf7bd8ef38b{fill:url(#a3478898-9574-4794-86dc-a8dff85b7164);}.b9babd82-840b-40f1-bd7d-68c926252105{fill:url(#ab54e724-cc23-4041-a9d3-6e97445fdbfc);}.f0b6d356-4093-4e97-9d11-af92693651b3{fill:url(#ba5e2671-9e73-46f4-b865-7cd0b9531b2b);}.e03d79f7-2a22-4bb0-a082-b5209f50d327{fill:url(#af7b9917-e78d-4ea7-9b29-8a5df5ddd3f6);}.a3363fa6-5686-4420-89c9-90ad3a9b6fef{fill-rule:evenodd;}</style><linearGradient id="f1957df8-47ad-44d9-ad63-5f6a8912fdc2" x1="-20.52" y1="517.95" x2="-20.05" y2="517.95" gradientTransform="matrix(15.78, 0, 0, -15.78, 365.09, 8193.89)" gradientUnits="userSpaceOnUse"><stop offset="0" stop-color="#dcbd80"></stop><stop offset="1" stop-color="#ca9e2e"></stop></linearGradient><linearGradient id="a6ec744e-293c-4048-abb1-7d41429fe99f" x1="-15.65" y1="526.37" x2="-15.18" y2="526.37" gradientTransform="translate(445.94 -14448.03) scale(27.54)" xlink:href="#f1957df8-47ad-44d9-ad63-5f6a8912fdc2"></linearGradient><linearGradient id="b6bcb5fb-c9a2-4a1a-a351-b5d5d7ed9041" x1="-14.32" y1="525.34" x2="-13.86" y2="525.34" gradientTransform="translate(587.54 -21025.58) scale(40.13)" xlink:href="#f1957df8-47ad-44d9-ad63-5f6a8912fdc2"></linearGradient><linearGradient id="a3478898-9574-4794-86dc-a8dff85b7164" x1="-19.36" y1="561.21" x2="-18.66" y2="561.21" gradientTransform="matrix(0, -4.62, -4.62, 0, 2726.16, -14.97)" xlink:href="#f1957df8-47ad-44d9-ad63-5f6a8912fdc2"></linearGradient><linearGradient id="ab54e724-cc23-4041-a9d3-6e97445fdbfc" x1="-19.36" y1="560.86" x2="-18.66" y2="560.86" gradientTransform="matrix(0, -4.62, -4.62, 0, 2720.87, -14.97)" xlink:href="#f1957df8-47ad-44d9-ad63-5f6a8912fdc2"></linearGradient><linearGradient id="ba5e2671-9e73-46f4-b865-7cd0b9531b2b" x1="-19.36" y1="561.56" x2="-18.66" y2="561.56" gradientTransform="matrix(0, -4.62, -4.62, 0, 2731.5, -14.97)" xlink:href="#f1957df8-47ad-44d9-ad63-5f6a8912fdc2"></linearGradient><linearGradient id="af7b9917-e78d-4ea7-9b29-8a5df5ddd3f6" x1="-19.36" y1="561.21" x2="-18.66" y2="561.21" gradientTransform="matrix(0, -4.62, -4.62, 0, 2726.16, -14.97)" xlink:href="#f1957df8-47ad-44d9-ad63-5f6a8912fdc2"></linearGradient></defs><polygon class="afb7d7ce-54bb-4ea7-abc1-e4792dcc29ed" points="45.02 17.08 46.16 19.39 48.71 19.76 46.87 21.56 47.3 24.1 45.02 22.89 42.75 24.1 43.18 21.56 41.34 19.76 43.89 19.39 45.02 17.08"></polygon><path class="a7ad77aa-7cf3-48ac-86c8-736d906ec386" d="M46.83,38.41a23.69,23.69,0,0,0-3.72-9.16A87.53,87.53,0,0,1,41,38.13a15.92,15.92,0,0,1,.45,19.43c-.18.26-.36.51-.55.76s-.45.64-.69,1A22.88,22.88,0,0,0,46.83,38.41Z"></path><path class="a7ad77aa-7cf3-48ac-86c8-736d906ec386" d="M33.1,32.83A4.9,4.9,0,0,0,25.3,29h0a4.88,4.88,0,0,0-2,4A15.93,15.93,0,0,0,24,63.39c-.24.35-.44.68-.62,1-8.77-1.44-16.22-8.69-18-18.5A23.29,23.29,0,0,1,8.94,28.62c.23-.36.48-.72.72-1.06C17.93,14.42,34.72,6.72,51.38,5,43,6.63,33.85,13.07,29.76,20.06A21.25,21.25,0,0,1,39.9,25.47c-.35,1.05-.63,2.29-1,3.46a42.38,42.38,0,0,1-2,5.6,15.93,15.93,0,0,0-3.79-1.7Z"></path><polygon class="afb7d7ce-54bb-4ea7-abc1-e4792dcc29ed" points="45.02 17.08 46.16 19.39 48.71 19.76 46.87 21.56 47.3 24.1 45.02 22.89 42.75 24.1 43.18 21.56 41.34 19.76 43.89 19.39 45.02 17.08"></polygon><path class="b87523b6-cd10-4b84-9502-051bedd03908" d="M24,63.4c3-4.47,10.06-12.26.52-17-6.17-3.08-10.92-9-.11-5,6.5,2.4,10.22-2,12.46-6.88a15.93,15.93,0,0,0-3.79-1.7,4.89,4.89,0,1,1-9.77.42,1.15,1.15,0,0,1,0-.19A15.94,15.94,0,0,0,24,63.4Z"></path><path class="a6c84d29-b468-4e19-95d7-e80d4e599c08" d="M44.23,45.23A15.68,15.68,0,0,0,41,38.12c-.83,2.91-1.59,5.21-1.75,5.66C37,50,31.24,60,26.47,64.09a61.15,61.15,0,0,1-4.83,4.15A27.84,27.84,0,0,1,9.36,74.42c12.54-1.36,23.86-6.55,32.11-16.49A17,17,0,0,0,44.23,45.23Z"></path><path class="a7ad77aa-7cf3-48ac-86c8-736d906ec386" d="M50.28,70.64a4,4,0,1,1-4.13-3.83h.14a3.82,3.82,0,0,1,4,3.66A.91.91,0,0,1,50.28,70.64Zm-6,0a2,2,0,1,0,2-2h0a2,2,0,0,0-2,2Z"></path><path class="a7ad77aa-7cf3-48ac-86c8-736d906ec386" d="M59.89,69.47a2.06,2.06,0,0,0-1.62-.79,2,2,0,0,0,0,3.92,2.11,2.11,0,0,0,1.62-.76v2.22a4.43,4.43,0,0,1-1.65.35,3.77,3.77,0,0,1-.31-7.54h.27a4.28,4.28,0,0,1,1.69.37Z"></path><path class="a7ad77aa-7cf3-48ac-86c8-736d906ec386" d="M69.5,69.47a2,2,0,0,0-1.62-.79,2,2,0,0,0,0,3.92,2.11,2.11,0,0,0,1.62-.76v2.22a4.43,4.43,0,0,1-1.65.35,3.77,3.77,0,0,1-.31-7.54h.26a4.13,4.13,0,0,1,1.7.37Z"></path><rect class="a7ad77aa-7cf3-48ac-86c8-736d906ec386" x="73.91" y="67.03" width="1.87" height="7.19"></rect><polygon class="a7ad77aa-7cf3-48ac-86c8-736d906ec386" points="83.24 74.22 81.37 74.22 81.37 68.61 79.85 68.61 79.85 67.03 84.79 67.03 84.79 68.61 83.24 68.61 83.24 74.22"></polygon><path class="a7ad77aa-7cf3-48ac-86c8-736d906ec386" d="M90.3,73l-.5,1.25h-2L90.59,67h2l2.71,7.19h-2L92.87,73Zm1.31-3.74-.79,2.29h1.55Z"></path><polygon class="a7ad77aa-7cf3-48ac-86c8-736d906ec386" points="99.41 67.03 101.28 67.03 104.72 71.42 104.72 67.03 106.59 67.03 106.59 74.22 104.72 74.22 101.28 69.82 101.28 74.22 99.41 74.22 99.41 67.03"></polygon><rect class="a7ad77aa-7cf3-48ac-86c8-736d906ec386" x="111.35" y="67.03" width="1.87" height="7.19"></rect><polygon class="a7ad77aa-7cf3-48ac-86c8-736d906ec386" points="119.83 68.61 119.83 69.81 121.94 69.81 121.94 71.39 119.83 71.39 119.83 72.64 122.05 72.64 122.05 74.22 117.97 74.22 117.97 67.03 122.05 67.03 122.05 68.61 119.83 68.61"></polygon><polygon class="a7ad77aa-7cf3-48ac-86c8-736d906ec386" points="147 74.22 145.13 74.22 145.13 68.61 143.61 68.61 143.61 67.03 148.56 67.03 148.56 68.61 147 68.61 147 74.22"></polygon><path class="a7ad77aa-7cf3-48ac-86c8-736d906ec386" d="M160.19,70.64a4,4,0,1,1-4.13-3.83h.15a3.82,3.82,0,0,1,4,3.66Zm-6,0a2,2,0,1,0,2-2h0a2,2,0,0,0-2,2h0Z"></path><path class="a7ad77aa-7cf3-48ac-86c8-736d906ec386" d="M166.48,70.91c0,.83,0,1,.2,1.29a1.19,1.19,0,0,0,1,.55,1.21,1.21,0,0,0,1.1-.58,2.21,2.21,0,0,0,.2-1.26V67h1.87v4.15a3,3,0,0,1-.7,2.21,3.58,3.58,0,0,1-5.05-.06h0a3.25,3.25,0,0,1-.52-2.14V67h1.87Z"></path><polygon class="a7ad77aa-7cf3-48ac-86c8-736d906ec386" points="177.51 72.64 179.75 72.64 179.75 74.22 175.64 74.22 175.64 67.03 177.51 67.03 177.51 72.64"></polygon><path class="a7ad77aa-7cf3-48ac-86c8-736d906ec386" d="M191.45,70.64a4,4,0,1,1-4.13-3.83h.15a3.81,3.81,0,0,1,4,3.65Zm-6,0a2,2,0,1,0,2-2h0a2,2,0,0,0-2,2Z"></path><path class="a7ad77aa-7cf3-48ac-86c8-736d906ec386" d="M197.75,70.91c0,.83,0,1,.21,1.29a1.18,1.18,0,0,0,1,.55,1.24,1.24,0,0,0,1.11-.58,2.33,2.33,0,0,0,.19-1.26V67h1.87v4.15a3,3,0,0,1-.7,2.21,3.58,3.58,0,0,1-5.05-.06h0a3.25,3.25,0,0,1-.52-2.14V67h1.87Z"></path><path class="a7ad77aa-7cf3-48ac-86c8-736d906ec386" d="M210.86,68.89a1.92,1.92,0,0,0-1.23-.47.73.73,0,0,0-.8.62c0,.22.16.41.47.56a8.45,8.45,0,0,0,.81.26c1.25.36,1.77,1,1.77,2,0,1.62-1,2.57-2.8,2.57a4.44,4.44,0,0,1-2.51-.81l.8-1.51a2.57,2.57,0,0,0,1.65.74c.55,0,.91-.28.91-.71s-.25-.57-1.13-.83a3.63,3.63,0,0,1-1.4-.6,1.79,1.79,0,0,1-.54-1.4,2.34,2.34,0,0,1,2.24-2.43.74.74,0,0,1,.21,0,5,5,0,0,1,2.28.58Z"></path><polygon class="a7ad77aa-7cf3-48ac-86c8-736d906ec386" points="218.17 68.61 218.17 69.81 220.28 69.81 220.28 71.39 218.17 71.39 218.17 72.64 220.39 72.64 220.39 74.22 216.31 74.22 216.31 67.03 220.39 67.03 220.39 68.61 218.17 68.61"></polygon><polygon class="ab4c250a-ee78-444d-b2cd-acf7bd8ef38b" points="138.47 69.63 136.69 65.96 135.49 68.43 131.23 68.43 130.03 65.96 128.25 69.63 138.47 69.63"></polygon><rect class="b9babd82-840b-40f1-bd7d-68c926252105" x="128.25" y="70.14" width="2.85" height="4.35"></rect><rect class="f0b6d356-4093-4e97-9d11-af92693651b3" x="135.66" y="70.14" width="2.84" height="4.35"></rect><rect class="e03d79f7-2a22-4bb0-a082-b5209f50d327" x="131.6" y="70.14" width="3.52" height="4.35"></rect><path class="a3363fa6-5686-4420-89c9-90ad3a9b6fef" d="M102,50.28a21.82,21.82,0,0,0,8.27-1.4q3.49-1.4,4.41-3.74l2.17-5.78q2.1-5.31-9.21-5.31H89.73A10,10,0,0,0,80.6,39.5L73,58.9s7.89-.55,9.86-5.51c1.78-4.49,4.21-9.66,5.61-12.62A4.22,4.22,0,0,1,92,38.55h12.09q6.09,0,5,2.62l-1.19,2c-.65,1.65-2.8,2.48-6.36,2.48l-6.85,0c-3,0-4.83.7-5.39,2.09-.29.74-.18,1.26.31,1.57,0,0,6.4,4.68,9.52,6.61,5.95,3.7,15.75,3,15.75,3L99.27,50.28Zm31.42-11.56h15c6.31,0,6.87-4.67,6.87-4.67H129.68c-5.61,0-8.71,2.1-10.08,5.55l-5.55,14q-1,2.58,1.75,4,2.55,1.28,8,1.27h22.27s-.55-4.21-6.63-4.21H127.24q-6.45,0-5.34-2.81l1.66-3.63h17.11l1.76-4.75h-17.1l.62-2C126.67,39.64,129.16,38.73,133.41,38.72Zm57.22,5.46q1.13-2.85,2.05-5.35.85-2.34-1.87-3.69a17.68,17.68,0,0,0-7.41-1.22H164.61c-7.48,0-9.14,5.66-9.14,5.66L148.42,58.9s6.93,1.05,8.88-4c1.34-3.28,2.22-5.34,2.22-5.34h18.06a22.56,22.56,0,0,0,8.58-1.44C188.49,47.14,190,45.84,190.63,44.18Zm-5.74-4.11-1.18,3q-1.11,2.8-7.19,2.8H161l1.79-5.46s2.81-2.83,4.68-2.83H180Q185.9,37.55,184.89,40.07ZM208.49,34a23.81,23.81,0,0,0-8,1.09q-4.32,1.55-5.36,4.16l-1.54,3.89q-.93,2.37,1.93,3.74a17.94,17.94,0,0,0,7.48,1.25h7.82q6.16,0,5.14,2.53A9.22,9.22,0,0,1,214.14,54q-1.65,1.24-6.35,1.24h-14c-5.81,0-6.36,3.64-6.36,3.64h21.1a25.56,25.56,0,0,0,9-1.37q3.61-1.37,4.64-3.94l1.55-3.93c.65-1.63.14-2.89-1.51-3.78s-4.14-1.35-7.48-1.35h-7.79a12,12,0,0,1-4.49-.57c-1-.49-1.28-1.16-.93-2a7.38,7.38,0,0,1,1.92-3.16q1.58-1.16,6.21-1.15h14.89C229.16,37.63,230,34,230,34ZM54.11,42.25a4.07,4.07,0,0,1,2.52-2.14,15.08,15.08,0,0,1,4.78-.57H72.77c6.66,0,7.44-5.55,7.44-5.55H61.83a28.17,28.17,0,0,0-9.17,1.14,7.72,7.72,0,0,0-4.86,4.41L42.34,53.31a3.07,3.07,0,0,0,1.3,4.13q2.34,1.48,7.72,1.48H64.92l5.76-.17s.41-5.38-6-5.38H56.3c-2.42,0-4-.23-4.84-.7s-1-1.28-.5-2.46Z"></path></svg> 