<?xml version="1.0" encoding="UTF-8" standalone="no"?>
<svg
   xmlns:dc="http://purl.org/dc/elements/1.1/"
   xmlns:cc="http://creativecommons.org/ns#"
   xmlns:rdf="http://www.w3.org/1999/02/22-rdf-syntax-ns#"
   xmlns:svg="http://www.w3.org/2000/svg"
   xmlns="http://www.w3.org/2000/svg"
   viewBox="0 0 207.34666 132.28"
   height="132.28"
   width="207.34666"
   xml:space="preserve"
   id="svg2"
   version="1.1"><metadata
     id="metadata8"><rdf:RDF><cc:Work
         rdf:about=""><dc:format>image/svg+xml</dc:format><dc:type
           rdf:resource="http://purl.org/dc/dcmitype/StillImage" /></cc:Work></rdf:RDF></metadata><defs
     id="defs6" /><g
     transform="matrix(1.3333333,0,0,-1.3333333,0,132.28)"
     id="g10"><g
       transform="scale(0.1)"
       id="g12"><path
         id="path14"
         style="fill:#ffffff;fill-opacity:1;fill-rule:nonzero;stroke:none"
         d="M 1555.14,0 H 0 V 992.125 H 1555.14 V 0" /><path
         id="path16"
         style="fill:#ffffff;fill-opacity:1;fill-rule:nonzero;stroke:none"
         d="M 1508.7,120.133 H 42.5313 V 871.992 H 1508.7 V 120.133" /><path
         id="path18"
         style="fill:#f03957;fill-opacity:1;fill-rule:nonzero;stroke:none"
         d="m 87.457,178.441 c 0,0 1.543,-0.32 4.5313,-0.933 3.2109,-0.766 6.8633,-1.145 12.0197,-1.965 10.808,-1.492 27.906,-3.477 49.472,-5.051 21.61,-1.808 48.063,-2.89 78.411,-3.789 30.375,-0.379 64.703,-0.738 102.132,0.836 18.731,0.387 38.192,1.875 58.368,2.879 20.125,1.664 40.996,2.914 62.336,5.289 42.769,4.082 87.64,10.492 133.859,18.344 46.086,8.472 93.617,18.176 141.098,31.23 47.738,12.192 95.168,28.219 142.273,45.125 46.551,18.278 92.871,37.496 136.583,60.313 10.96,5.629 21.89,11.238 32.75,16.82 10.58,6.106 21.11,12.18 31.57,18.219 21.23,11.621 40.99,25.043 60.71,37.812 39.18,25.946 75.31,53.641 108.17,81.563 4.16,3.433 8.29,6.844 12.39,10.23 3.89,3.629 7.75,7.231 11.57,10.801 7.67,7.152 15.21,14.195 22.63,21.121 15.23,13.481 28.31,28.121 41.32,41.758 6.47,6.848 12.82,13.555 19.01,20.105 6.18,6.575 11.52,13.61 17.1,20.137 10.99,13.219 21.42,25.762 31.22,37.543 17.9,24.871 34.09,46.199 46.39,64.461 23.54,37.27 36.98,58.57 36.98,58.57 0,0 -12.92,-21.64 -35.54,-59.511 -11.86,-18.586 -27.54,-40.34 -44.89,-65.75 -9.54,-12.067 -19.69,-24.91 -30.39,-38.45 -5.44,-6.691 -10.63,-13.902 -16.67,-20.656 -6.07,-6.738 -12.27,-13.633 -18.61,-20.676 -12.73,-14.031 -25.55,-29.101 -40.52,-43.043 -7.3,-7.16 -14.72,-14.437 -22.26,-21.832 -3.77,-3.699 -7.57,-7.421 -11.4,-11.175 -4.05,-3.516 -8.12,-7.055 -12.22,-10.618 -32.43,-28.964 -68.19,-57.828 -107.13,-85.019 -19.6,-13.399 -39.27,-27.469 -60.42,-39.75 -10.44,-6.375 -20.95,-12.785 -31.5,-19.231 -10.85,-5.921 -21.76,-11.871 -32.72,-17.843 C 972.387,292.109 925.98,271.473 879.219,251.773 831.93,233.449 784.188,216 736.082,202.43 688.223,187.992 640.25,176.945 593.66,167.18 c -46.715,-9.133 -92.144,-16.774 -135.492,-22 -21.637,-2.95 -42.801,-4.754 -63.234,-6.95 -20.485,-1.535 -40.254,-3.535 -59.305,-4.402 -38.055,-2.543 -73.051,-3.055 -104.082,-3.433 -31.051,0.144 -58.133,0.585 -80.512,1.898 -22.441,1.09 -39.824,2.641 -52.453,4.074 -6.5351,0.852 -11.8867,1.485 -14.6328,2.074 -3.0039,0.539 -4.5547,0.821 -4.5547,0.821 l 8.0625,39.179" /><path
         id="path20"
         style="fill:#66cde2;fill-opacity:1;fill-rule:nonzero;stroke:none"
         d="m 71.1289,265.449 c 0,0 23.0547,-0.656 63.4021,-1.804 20.266,-0.907 44.875,-2.008 73.102,-3.274 28.035,-1.273 59.715,-2.941 94.125,-4.062 34.469,-1.582 71.719,-1.985 111.156,-2.629 19.707,-0.078 39.922,0.433 60.609,0.629 20.704,-0.039 41.782,1.062 63.223,2.234 42.984,1.332 87.063,6.297 131.992,10.504 44.535,6.766 90.196,11.859 134.879,22.183 l 33.676,6.907 16.824,3.449 16.563,4.414 c 22.058,5.941 44.035,11.855 65.836,17.727 5.437,1.515 10.933,2.82 16.297,4.503 l 15.933,5.407 c 10.602,3.597 21.149,7.179 31.634,10.734 10.49,3.559 20.92,7.098 31.27,10.609 10.38,3.458 20.69,6.879 30.52,11.274 19.9,8.262 39.46,16.383 58.6,24.332 9.59,3.977 19.06,7.91 28.43,11.801 9.22,4.191 18.08,8.879 26.96,13.203 17.7,8.797 34.92,17.355 51.58,25.633 8.33,4.14 16.52,8.211 24.57,12.207 7.97,4.117 15.41,8.859 22.91,13.121 29.83,17.433 57.17,33.414 81.4,47.574 23.64,15.121 43.61,29.316 60.39,40.492 33.41,22.649 52.49,35.586 52.49,35.586 0,0 -18.73,-13.453 -51.5,-36.992 -16.49,-11.641 -36.11,-26.395 -59.38,-42.188 -23.9,-14.851 -50.87,-31.609 -80.28,-49.89 -7.42,-4.485 -14.76,-9.449 -22.65,-13.797 -7.96,-4.231 -16.07,-8.535 -24.32,-12.918 -16.51,-8.77 -33.58,-17.836 -51.12,-27.156 -8.81,-4.59 -17.6,-9.543 -26.76,-14.012 -9.31,-4.164 -18.73,-8.383 -28.26,-12.645 -19.06,-8.527 -38.54,-17.238 -58.35,-26.097 -9.8,-4.699 -20.09,-8.426 -30.45,-12.195 -10.34,-3.825 -20.75,-7.676 -31.23,-11.551 -10.481,-3.879 -21.032,-7.778 -31.634,-11.696 l -15.945,-5.894 c -5.367,-1.848 -10.871,-3.317 -16.32,-4.996 -21.867,-6.528 -43.91,-13.11 -66.039,-19.711 l -16.633,-4.918 -16.906,-3.953 -33.871,-7.91 C 762.871,258.02 716.859,251.59 671.859,243.52 c -45.339,-5.5 -89.953,-11.735 -133.406,-14.27 -21.695,-1.77 -43.043,-3.465 -63.961,-3.996 -20.914,-0.766 -41.39,-1.836 -61.312,-2.293 -39.825,-0.438 -77.52,-1.043 -112.196,-0.395 -34.754,0.192 -66.437,1.004 -94.578,1.516 -27.949,0.496 -52.316,0.93 -72.386,1.285 -40.3442,0.055 -63.3989,0.086 -63.3989,0.086 l 0.5078,39.996" /><path
         id="path22"
         style="fill:#132746;fill-opacity:1;fill-rule:nonzero;stroke:none"
         d="m 293.77,615.434 c 0,-7.715 -3.805,-11.575 -11.422,-11.575 H 178.051 c -23.828,0 -42.434,2.153 -55.813,6.45 -20.605,7.129 -30.9099,20.652 -30.9099,40.574 v 119.969 c 0,7.621 3.8086,11.425 11.4299,11.425 7.32,0 12.008,-0.293 14.058,-0.879 4.692,-1.367 7.032,-4.878 7.032,-10.546 V 650.883 c 0,-9.278 7.519,-15.379 22.558,-18.313 4.785,-1.265 15.918,-1.902 33.399,-1.902 h 102.543 c 7.617,0 11.422,-5.078 11.422,-15.234" /><path
         id="path24"
         style="fill:#132746;fill-opacity:1;fill-rule:nonzero;stroke:none"
         d="m 480.832,677.688 -49.363,72.804 -49.66,-72.804 z m 78.953,-61.668 c 0,-4.493 -1.512,-8.25 -4.539,-11.282 -3.027,-3.023 -6.785,-4.539 -11.277,-4.539 -6.25,0 -11.328,2.93 -15.239,8.789 l -28.855,41.895 H 362.766 l -28.86,-41.895 c -3.125,-4.59 -6.492,-6.886 -10.105,-6.886 -3.613,0 -7.078,1.171 -10.403,3.515 -3.71,2.539 -5.562,5.52 -5.562,8.938 0,1.074 0.293,2.05 0.879,2.929 L 411.547,774.66 c 4.195,6.445 11.426,9.668 21.676,9.668 7.621,0 12.699,-2.144 15.238,-6.441 0.191,-0.293 0.414,-0.711 0.656,-1.246 0.246,-0.539 0.61,-1.2 1.102,-1.981 l 108.98,-154.246 c 0.395,-0.684 0.586,-2.148 0.586,-4.394" /><path
         id="path26"
         style="fill:#132746;fill-opacity:1;fill-rule:nonzero;stroke:none"
         d="m 740.406,677.688 -49.375,72.804 -49.648,-72.804 z m 78.949,-61.668 c 0,-4.493 -1.503,-8.25 -4.531,-11.282 -3.023,-3.023 -6.797,-4.539 -11.289,-4.539 -6.25,0 -11.332,2.93 -15.238,8.789 l -28.848,41.895 H 622.34 l -28.863,-41.895 c -3.125,-4.59 -6.493,-6.886 -10.106,-6.886 -3.613,0 -7.078,1.171 -10.398,3.515 -3.711,2.539 -5.571,5.52 -5.571,8.938 0,1.074 0.293,2.05 0.879,2.929 L 671.109,774.66 c 4.2,6.445 11.426,9.668 21.68,9.668 7.617,0 12.695,-2.144 15.234,-6.441 0.196,-0.293 0.411,-0.711 0.665,-1.246 0.234,-0.539 0.605,-1.2 1.093,-1.981 L 818.77,620.414 c 0.39,-0.684 0.585,-2.148 0.585,-4.394" /><path
         id="path28"
         style="fill:#132746;fill-opacity:1;fill-rule:nonzero;stroke:none"
         d="m 1031.47,648.102 c 0,-9.575 -1.52,-17.043 -4.54,-22.414 -8.11,-14.551 -32.621,-21.829 -73.539,-21.829 H 840.742 c -7.519,0 -11.277,3.86 -11.277,11.575 0,5.273 0.586,8.933 1.758,10.988 1.66,2.832 4.832,4.246 9.519,4.246 h 112.649 c 30.371,0 45.554,5.613 45.554,16.848 v 15.379 c 0,10.937 -14.695,16.894 -44.09,17.871 l -54.05,1.757 c -2.543,0.098 -6.133,0.27 -10.766,0.512 -4.648,0.246 -10.328,0.61 -17.066,1.102 -11.719,1.367 -21.782,5.222 -30.176,11.57 -9.184,7.031 -13.774,16.262 -13.774,27.688 v 13.472 c 0,20.805 11.528,34.524 34.575,41.164 11.035,2.832 31.25,4.246 60.64,4.246 7.617,0 11.426,-4.976 11.426,-14.937 0,-5.766 -2.293,-9.375 -6.883,-10.844 -0.683,-0.391 -5.32,-0.586 -13.918,-0.586 -35.547,0 -53.316,-6.25 -53.316,-18.75 v -12.449 c 0,-7.715 6.637,-12.742 19.922,-15.09 2.539,-0.484 6.226,-0.851 11.051,-1.098 4.843,-0.242 10.773,-0.367 17.804,-0.367 h 43.504 c 20.805,0 37.207,-2.683 49.222,-8.054 18.94,-7.813 28.42,-19.825 28.42,-36.036 v -15.964" /><path
         id="path30"
         style="fill:#132746;fill-opacity:1;fill-rule:nonzero;stroke:none"
         d="m 515.043,511.574 c 0,-5.656 -2.797,-8.484 -8.383,-8.484 h -84.969 c -20.625,0 -30.937,-4.121 -30.937,-12.36 v -64.773 c 0,-9.738 11.422,-14.609 34.266,-14.609 h 81.105 c 5.801,0 8.699,-3.262 8.699,-9.778 0,-6.59 -2.898,-9.882 -8.699,-9.882 H 425.02 c -10.957,0 -18.836,0.429 -23.629,1.289 -5.231,1.007 -10.676,2.941 -16.332,5.8 -6.446,3.371 -10.957,6.875 -13.536,10.528 -3.078,4.152 -4.617,9.562 -4.617,16.222 v 65.098 c 0,8.234 3.762,15.258 11.278,21.059 6.3,4.793 13.964,8.015 22.992,9.668 2.289,0.355 5.082,0.644 8.379,0.859 3.289,0.215 7.195,0.32 11.707,0.32 h 85.398 c 5.586,0 8.383,-3.648 8.383,-10.957" /><path
         id="path32"
         style="fill:#132746;fill-opacity:1;fill-rule:nonzero;stroke:none"
         d="m 696.262,405.762 c 0,-9.953 -4.371,-14.934 -13.106,-14.934 -4.015,0 -8.558,2.11 -13.644,6.34 l -111.395,94.637 v -91.629 c 0,-4.231 -1.719,-6.875 -5.156,-7.949 -1.008,-0.137 -2.363,-0.266 -4.082,-0.372 -1.719,-0.109 -3.801,-0.167 -6.231,-0.167 -5.585,0 -8.378,2.832 -8.378,8.488 V 509.32 c 0,9.453 4.085,14.18 12.253,14.18 5.165,0 10.465,-2.297 15.911,-6.875 l 109.98,-93.57 v 91.097 c 0,4.153 1.707,6.77 5.133,7.844 0.996,0.141 2.351,0.27 4.062,0.375 1.711,0.109 3.778,0.16 6.204,0.16 5.632,0 8.449,-2.793 8.449,-8.379 v -108.39" /><path
         id="path34"
         style="fill:#132746;fill-opacity:1;fill-rule:nonzero;stroke:none"
         d="m 849.555,473.438 v 16.542 c 0,8.739 -11.172,13.11 -33.52,13.11 h -80.457 v -41.899 h 84.758 c 19.469,0 29.219,4.082 29.219,12.247 z m 23.843,0.214 c 0,-11.816 -6.226,-20.449 -18.687,-25.89 -9.887,-4.012 -21.273,-6.016 -34.16,-6.016 H 781.23 l 79.708,-33.836 c 4.218,-1.867 6.339,-4.621 6.339,-8.273 0,-5.371 -4.699,-8.055 -14.074,-8.055 -3.73,0 -6.656,0.293 -8.808,0.859 l -108.817,46.512 v -38.777 c 0,-5.656 -2.793,-8.488 -8.379,-8.488 -5.945,0 -9.386,0.253 -10.312,0.753 -3.438,1.075 -5.157,3.653 -5.157,7.735 v 113.976 c 0,5.586 2.793,8.379 8.379,8.379 h 96.036 c 14.89,0 27.136,-1.929 36.738,-5.801 13.672,-5.515 20.515,-14.609 20.515,-27.289 v -15.789" /><path
         id="path36"
         style="fill:#132746;fill-opacity:1;fill-rule:nonzero;stroke:none"
         d="m 1033.02,424.129 c 0,-7.02 -1.11,-12.5 -3.33,-16.434 -5.95,-10.675 -23.92,-16.007 -53.928,-16.007 h -82.606 c -5.519,0 -8.269,2.832 -8.269,8.488 0,3.867 0.426,6.551 1.289,8.054 1.219,2.083 3.543,3.118 6.98,3.118 h 82.606 c 22.277,0 33.408,4.121 33.408,12.351 v 11.281 c 0,8.016 -10.779,12.391 -32.33,13.106 l -39.641,1.289 c -1.863,0.066 -4.492,0.195 -7.89,0.379 -3.411,0.176 -7.579,0.441 -12.52,0.801 -8.594,1.008 -15.969,3.828 -22.129,8.488 -6.73,5.156 -10.097,11.922 -10.097,20.301 v 9.883 c 0,15.257 8.449,25.32 25.351,30.191 8.098,2.074 22.922,3.113 44.473,3.113 5.586,0 8.379,-3.648 8.379,-10.957 0,-4.226 -1.68,-6.875 -5.047,-7.945 -0.5,-0.289 -3.91,-0.434 -10.207,-0.434 -26.067,0 -39.102,-4.582 -39.102,-13.754 v -9.128 c 0,-5.657 4.871,-9.348 14.61,-11.067 1.867,-0.359 4.57,-0.625 8.105,-0.801 3.555,-0.183 7.898,-0.273 13.055,-0.273 h 31.906 c 15.254,0 27.284,-1.973 36.094,-5.906 13.9,-5.735 20.84,-14.543 20.84,-26.426 v -11.711" /></g></g></svg>